# xmcd CD database file
#
# Track frame offsets:
#	150
#	15502
#	28512
#	48035
#	60065
#	76692
#	93055
#	108067
#	128927
#	145945
#	160720
#
# Disc length: 2394 seconds
#
# Revision: 3
# Processed by: cddbd v1.5.2PL0 Copyright (c) Steve Scherf et al.
# Submitted via: CDex 1.60beta1
#
DISCID=6a09580b
DTITLE=Dean Miller - Dean Miller
DYEAR=1997
DGENRE=Country
TTITLE0=Nowhere, USA
TTITLE1=Wake Up And Smell The Whiskey
TTITLE2=I Used To Know Her
TTITLE3=My Heart's Broke Down (But My Mind's Made Up)
TTITLE4=Broke Down In Birmingham
TTITLE5=I Feel Bad
TTITLE6=Missing You
TTITLE7=If I Was Your Man
TTITLE8=The Long Way Home
TTITLE9=Dreams
TTITLE10=The Running Side Of Me
EXTD=YEAR: 1997
EXTT0=
EXTT1=
EXTT2=
EXTT3=
EXTT4=
EXTT5=
EXTT6=
EXTT7=
EXTT8=
EXTT9=
EXTT10=
PLAYORDER=
